<svg xmlns="http://www.w3.org/2000/svg" width="15.437" height="23.198" viewBox="0 0 15.437 23.198"><defs><style>.a{fill:#444;}</style></defs><g transform="translate(0 0)"><path class="a" d="M55.015,22.111c-.112-.935-1.145-1.041-1.746-.976-.639-2.407,1.591-6,1.722-6.845.141-.913-.653-6.225-.737-8.915-.086-2.761-4.1-5.81-4.766-5.324-.664.734.956,1.724.1,2.573a11.392,11.392,0,0,0-1.649,2.3C46.376,7.3,50.62,7.331,50.62,7.331s-3.322,2.462-4.061,3.7a33.247,33.247,0,0,1-1.787,3.5c-1.872,2.456-1.45,6.738-1.45,6.738s-3.546-1.161-1.594-5.209C43.213,12.98,43.945,8.433,40.6,9.6c-1.293.453.289,1.4.562,1.709.914,1.02.141,2.735-.409,3.727-1.474,2.656-2.009,5.439,1.093,7.155a11.221,11.221,0,0,0,5.115.979l4.768.014C53.3,23.263,55.08,22.969,55.015,22.111Z" transform="translate(-39.579 0.001)"/></g></svg>