<svg xmlns="http://www.w3.org/2000/svg" width="25.816" height="21.262" viewBox="0 0 25.816 21.262"><defs><style>.a{fill:#444;}</style></defs><path class="a" d="M25.783,44.408a.527.527,0,0,0-.3-.3l-2.294-.925a1.959,1.959,0,0,0-1.43-1.522l-.124-1.425a.527.527,0,0,0-.915-.308l-.589.649L19.772,39.3a.527.527,0,0,0-1-.035l-2.719,7.5-10.075.47A5.278,5.278,0,0,1,.994,44.421a.527.527,0,1,0-.933.489,6.335,6.335,0,0,0,4.127,3.214,4.093,4.093,0,0,0-.8,1.557,5.678,5.678,0,0,0,.573,4.132L2.487,55.818a.526.526,0,0,0-.094.408l.65,3.523a.527.527,0,0,0,.518.431h.662a.526.526,0,0,0,.518-.621L4.33,57.3l4.353-3.268h0a3.929,3.929,0,0,0,.934-1.13c2.269.4,5.374.937,7.364,1.258l.877,5.577a.527.527,0,0,0,.52.445h.545a.527.527,0,0,0,.527-.527V53.992a2.184,2.184,0,0,0,.788-1.455l1.171-5.407a4.049,4.049,0,0,0,.666.056A4.149,4.149,0,0,0,25.76,44.83.526.526,0,0,0,25.783,44.408Z" transform="translate(-0.001 -38.918)"/></svg>