<svg xmlns="http://www.w3.org/2000/svg" width="146.49" height="118.34" viewBox="0 0 146.49 118.34">
  <g id="double-king-size-bed" transform="translate(0 -37.528)">
    <path id="Path_10" data-name="Path 10" d="M146.68 116.58 130.56 91.05V44.09l-6.56-6.56H23.47l-6.56 6.56v46.96L0.78 116.58ZM117.43 50.66V83.42c-8.46-2.19-23.07-4.89-43.7-4.89s-35.24 2.7-43.7 4.89V50.66Z" transform="translate(-0.49)" fill="#444"/>
    <path id="Path_11" data-name="Path 11" d="M0 269.83v13.13H15.3v18.08H28.42V282.96h89.64v18.08h13.13V282.96h15.3V269.83Z" transform="translate(0 -145.173)" fill="#444"/>
    <path id="Path_12" data-name="Path 12" d="M132.04 102.22V94.57c0-4.54-6.59-8.22-14.71-8.22s-14.71 3.68-14.71 8.22v11.48a123.49 123.49 0 0 1 14.65-2.75C122.63 102.79 132.04 102.22 132.04 102.22Z" transform="translate(-64.128 -30.509)" fill="#444"/>
    <path id="Path_13" data-name="Path 13" d="M238.91 106.05V94.57c0-4.54-6.59-8.22-14.71-8.22s-14.71 3.68-14.71 8.22v7.65s9.41 14.78 1.08A123.46 123.46 0 0 1 238.91 106.05Z" transform="translate(-130.911 -30.509)" fill="#444"/>
  </g>
</svg>
